<?xml version="1.0" encoding="UTF-8" standalone="no"?>
<svg
   xmlns:dc="http://purl.org/dc/elements/1.1/"
   xmlns:cc="http://creativecommons.org/ns#"
   xmlns:rdf="http://www.w3.org/1999/02/22-rdf-syntax-ns#"
   xmlns:svg="http://www.w3.org/2000/svg"
   xmlns="http://www.w3.org/2000/svg"
   xmlns:sodipodi="http://sodipodi.sourceforge.net/DTD/sodipodi-0.dtd"
   xmlns:inkscape="http://www.inkscape.org/namespaces/inkscape"
   width="64"
   height="64"
   viewBox="0 0 16.933333 16.933334"
   version="1.1"
   id="svg8"
   inkscape:version="1.0.2 (e86c870879, 2021-01-15, custom)"
   sodipodi:docname="rss.svg">
  <defs
     id="defs2">
    <pattern
       id="EMFhbasepattern"
       patternUnits="userSpaceOnUse"
       width="6"
       height="6"
       x="0"
       y="0" />
  </defs>
  <sodipodi:namedview
     id="base"
     pagecolor="#ffffff"
     bordercolor="#666666"
     borderopacity="1.0"
     inkscape:pageopacity="0.0"
     inkscape:pageshadow="2"
     inkscape:zoom="5.6568543"
     inkscape:cx="7.4478731"
     inkscape:cy="34.947893"
     inkscape:document-units="mm"
     inkscape:current-layer="layer1"
     inkscape:document-rotation="0"
     showgrid="false"
     inkscape:window-width="1267"
     inkscape:window-height="1198"
     inkscape:window-x="52"
     inkscape:window-y="52"
     inkscape:window-maximized="0"
     units="px"
     inkscape:pagecheckerboard="true" />
  <metadata
     id="metadata5">
    <rdf:RDF>
      <cc:Work
         rdf:about="">
        <dc:format>image/svg+xml</dc:format>
        <dc:type
           rdf:resource="http://purl.org/dc/dcmitype/StillImage" />
        <dc:title></dc:title>
      </cc:Work>
    </rdf:RDF>
  </metadata>
  <g
     inkscape:label="Layer 1"
     inkscape:groupmode="layer"
     id="layer1">
    <path
       style="fill:#000000;stroke-width:0.0330663"
       d="M 2.0107131,16.898109 C 1.5540872,16.825987 1.1348836,16.620589 0.77645125,16.293388 0.16445459,15.734703 -0.11107842,14.895977 0.05432399,14.095225 0.28724657,12.96756 1.2215711,12.201213 2.3659691,12.199163 c 0.665788,-0.0013 1.1909134,0.209924 1.6581812,0.666669 0.4687559,0.458187 0.7045481,1.022353 0.7055744,1.688186 0.00198,1.273212 -0.9722706,2.295975 -2.2480224,2.359988 -0.1545858,0.0076 -0.3665311,5.47e-4 -0.4709892,-0.01594 z M 7.6929873,16.675552 C 7.6221269,15.71167 7.5272631,15.196303 7.2887378,14.479499 6.4721765,12.025618 4.4159663,10.114024 1.9077793,9.4769783 1.4110725,9.350805 0.91024808,9.2737194 0.3737231,9.2407867 L 0.00172597,9.2180118 V 7.6804679 6.1429272 l 0.43813107,0.023459 C 1.0637711,6.1998039 1.6313005,6.2706189 2.1841049,6.3840397 6.5038412,7.2703638 9.879645,10.767103 10.61451,15.116439 c 0.06856,0.405713 0.116987,0.874786 0.150755,1.459981 l 0.02051,0.355457 H 9.2488027 7.7118283 Z M 13.843899,16.460617 C 13.713717,13.73116 12.971101,11.427563 11.51997,9.251749 9.4752087,6.1858353 6.3001101,4.0606261 2.6966327,3.3459598 1.9962085,3.2070477 1.3339839,3.1307167 0.47292173,3.0896474 L 0.00172597,3.0671761 V 1.5345167 0.00185888 h 0.17819738 c 0.38384922,0 1.38553615,0.0709516 1.88844835,0.13374977 3.8680876,0.48307214 7.3010169,2.18614745 10.0370433,4.97937515 2.608062,2.6625936 4.241875,6.0637402 4.691886,9.7672222 0.06218,0.511616 0.134388,1.526211 0.134388,1.887953 v 0.161657 h -1.532658 -1.532659 z"
       id="path23" />
  </g>
</svg>
