<?xml version="1.0" encoding="UTF-8" standalone="no"?>
<svg
   xmlns:dc="http://purl.org/dc/elements/1.1/"
   xmlns:cc="http://creativecommons.org/ns#"
   xmlns:rdf="http://www.w3.org/1999/02/22-rdf-syntax-ns#"
   xmlns:svg="http://www.w3.org/2000/svg"
   xmlns="http://www.w3.org/2000/svg"
   xmlns:sodipodi="http://sodipodi.sourceforge.net/DTD/sodipodi-0.dtd"
   xmlns:inkscape="http://www.inkscape.org/namespaces/inkscape"
   width="64"
   height="32"
   viewBox="0 0 16.933333 8.466667"
   version="1.1"
   id="svg8"
   inkscape:version="1.0.2 (e86c870879, 2021-01-15, custom)"
   sodipodi:docname="switcher2.svg">
  <defs
     id="defs2" />
  <sodipodi:namedview
     id="base"
     pagecolor="#ffffff"
     bordercolor="#ff0000"
     borderopacity="1"
     inkscape:pageopacity="0.0"
     inkscape:pageshadow="2"
     inkscape:zoom="16"
     inkscape:cx="20.248492"
     inkscape:cy="20.795377"
     inkscape:document-units="px"
     inkscape:current-layer="layer1"
     inkscape:document-rotation="0"
     showgrid="false"
     units="px"
     showguides="true"
     inkscape:guide-bbox="true"
     inkscape:pagecheckerboard="true"
     inkscape:window-width="3440"
     inkscape:window-height="1387"
     inkscape:window-x="-8"
     inkscape:window-y="-8"
     inkscape:window-maximized="1">
    <sodipodi:guide
       position="-4.5640626,10.814844"
       orientation="1,0"
       id="guide944" />
    <sodipodi:guide
       position="11.542448,7.4083336"
       orientation="0,-1"
       id="guide948" />
  </sodipodi:namedview>
  <metadata
     id="metadata5">
    <rdf:RDF>
      <cc:Work
         rdf:about="">
        <dc:format>image/svg+xml</dc:format>
        <dc:type
           rdf:resource="http://purl.org/dc/dcmitype/StillImage" />
        <dc:title></dc:title>
      </cc:Work>
    </rdf:RDF>
  </metadata>
  <g
     inkscape:label="Layer 1"
     inkscape:groupmode="layer"
     id="layer1"
     style="display:inline">
    <rect
       style="display:inline;opacity:1;fill:none;fill-rule:evenodd;stroke:#0000ff;stroke-width:0.505414;stroke-miterlimit:4;stroke-dasharray:none;stroke-opacity:1"
       id="rect863"
       width="16.427919"
       height="7.9612527"
       x="0.25116557"
       y="0.25323313"
       rx="4.1069798" />
    <circle
       style="display:inline;fill:#0000ff;fill-opacity:1;stroke-width:0.405981"
       id="path885"
       cx="4.374023"
       cy="4.2373543"
       r="3.175" />
    <g
       id="g942"
       style="display:inline"
       transform="matrix(1.4921861,0,0,1.4921861,-2.1293234,-1.8964798)">
      <ellipse
         style="display:inline;fill:#fff700;fill-opacity:1;stroke:none;stroke-width:0.325431;stroke-miterlimit:4;stroke-dasharray:none;stroke-opacity:1"
         id="path925"
         cx="4.306366"
         cy="4.1159325"
         rx="0.94877928"
         ry="0.94877934" />
      <path
         sodipodi:type="star"
         style="display:inline;fill:#fff700;fill-opacity:1;stroke:none;stroke-width:0.491941;stroke-miterlimit:4;stroke-dasharray:none;stroke-opacity:1"
         id="path927"
         sodipodi:sides="16"
         sodipodi:cx="-20.377556"
         sodipodi:cy="-9.0224152"
         sodipodi:r1="1.009316"
         sodipodi:r2="0.50465804"
         sodipodi:arg1="0.39889186"
         sodipodi:arg2="0.5952414"
         inkscape:flatsided="false"
         inkscape:rounded="0"
         inkscape:randomized="0"
         inkscape:transform-center-x="0.043242956"
         inkscape:transform-center-y="0.11457658"
         transform="matrix(1.6381721,0,0,1.6153073,37.701409,18.679663)"
         d="m -19.447479,-8.6303994 -0.512213,-0.1090496 0.291397,0.435134 -0.431492,-0.2967641 0.102698,0.5135244 -0.28508,-0.4392991 -0.101637,0.5137353 -0.09527,-0.5149547 -0.290499,0.4357346 0.10905,-0.5122131 -0.435134,0.2913973 0.296764,-0.4314917 -0.513524,0.1026974 0.439299,-0.2850796 -0.513735,-0.1016373 0.514954,-0.095267 -0.435734,-0.2904986 0.512213,0.1090496 -0.291398,-0.4351341 0.431492,0.2967642 -0.102697,-0.5135244 0.285079,0.4392991 0.101638,-0.5137355 0.09527,0.5149548 0.290499,-0.4357345 -0.10905,0.512213 0.435134,-0.2913972 -0.296764,0.4314916 0.513525,-0.1026973 -0.439299,0.2850796 0.513735,0.1016373 -0.514955,0.095267 z" />
    </g>
    <circle
       style="display:inline;fill:#0000ff;fill-opacity:1;stroke-width:0.405981"
       id="circle946"
       cx="12.658789"
       cy="4.2373543"
       r="3.175" />
    <path
       id="path950"
       style="opacity:1;fill:#9c9da2;fill-opacity:1;stroke:none;stroke-width:0.45341;stroke-miterlimit:4;stroke-dasharray:none;stroke-opacity:1"
       d="m 12.531035,1.951326 a 2.2245468,2.2245468 0 0 0 -0.510973,0.067303 2.2245468,2.2245468 0 0 1 1.492182,2.1005675 2.2245468,2.2245468 0 0 1 -1.681693,2.1572438 2.2245468,2.2245468 0 0 0 0.732365,0.1239795 2.2245468,2.2245468 0 0 0 2.224547,-2.2245471 2.2245468,2.2245468 0 0 0 -2.224547,-2.224547 2.2245468,2.2245468 0 0 0 -0.03187,0 z" />
  </g>
</svg>
